<?xml version="1.0" encoding="utf-8"?>
<!-- Generator: Adobe Illustrator 25.2.3, SVG Export Plug-In . SVG Version: 6.00 Build 0)  -->
<svg version="1.1" id="Calque_1" xmlns="http://www.w3.org/2000/svg" xmlns:xlink="http://www.w3.org/1999/xlink" x="0px" y="0px"
	 viewBox="0 0 19 96" style="enable-background:new 0 0 19 96;" xml:space="preserve">
<image style="display:none;overflow:visible;" width="19" height="96" xlink:href="../Desktop/checks.png" >
</image>
<g>
	<path d="M15.7,5.3v13.3H2.3V5.3H15.7z M17,4H1v16h16V4z"/>
</g>
<g>
	<path d="M15.7,29.3v13.3H2.3V29.3H15.7z M17,28H1v16h16V28z M13,39.3l-3.1-3l3-3.1L12,32.3l-3,3.1l-3.1-3L5,33.3l3.1,3l-3,3.1
		l0.9,0.9l3-3.1l3.1,3C12,40.3,13,39.3,13,39.3z"/>
</g>
<g>
	<g>
		<g id="radio-button-on_1_">
			<path d="M9,56c-2.2,0-4,1.8-4,4s1.8,4,4,4s4-1.8,4-4S11.2,56,9,56z M9,52c-4.4,0-8,3.6-8,8s3.6,8,8,8s8-3.6,8-8S13.4,52,9,52z
				 M9,66.4c-3.5,0-6.4-2.9-6.4-6.4s2.9-6.4,6.4-6.4s6.4,2.9,6.4,6.4S12.5,66.4,9,66.4z"/>
		</g>
	</g>
</g>
<g>
	<g>
		<g id="radio-button-on_2_">
			<path d="M9,76c-4.4,0-8,3.6-8,8s3.6,8,8,8s8-3.6,8-8S13.4,76,9,76z M9,90.4c-3.5,0-6.4-2.9-6.4-6.4s2.9-6.4,6.4-6.4
				s6.4,2.9,6.4,6.4S12.5,90.4,9,90.4z"/>
		</g>
	</g>
</g>
</svg>
