<svg id="Calque_1" data-name="Calque 1" xmlns="http://www.w3.org/2000/svg" viewBox="0 0 322 163"><defs><style>.cls-1{fill:none;stroke:#000;stroke-miterlimit:10;stroke-width:3px;}</style></defs><title>Flexicontent</title><path class="cls-1" d="M150.31,5c-10.19,0-20.37,5.92-30,16.67,26.3,23.29,40.3,75,50.41,137.83H172c6.26-37.21,14.4-69.89,23.57-95.46C181.83,27.39,165.26,5,150.31,5Z"/><path class="cls-1" d="M147.51,5l2.8,0S149.26,5,147.51,5Z"/><path class="cls-1" d="M147.51,5l-78,.48c-25,0-51.31,63.68-66.5,154H69.7C79.1,96.59,98.23,46.36,120.32,21.67,129.94,10.92,140.12,5,150.31,5Z"/><path class="cls-1" d="M238.5,5.5c-14.7,0-29.85,22-42.93,58.54C186.4,89.61,178.26,122.29,172,159.5h66.7C252.19,69.18,285.75,5,319.31,5Z"/></svg>